<svg width="354" height="83" viewBox="0 0 354 83" fill="none" xmlns="http://www.w3.org/2000/svg">
<line x1="1" y1="61.4036" x2="265" y2="61.4036" stroke="#979797" stroke-miterlimit="3.86874"/>
<line x1="264.5" y1="61" x2="264.5" y2="55" stroke="#979797" stroke-miterlimit="3.86874"/>
<line x1="132.885" y1="69" x2="132.885" y2="61.2572" stroke="#979797" stroke-miterlimit="3.86874"/>
<line x1="1.49622" y1="61.2572" x2="1.49622" y2="55.2572" stroke="#979797" stroke-miterlimit="3.86874"/>
<line x1="319" y1="61.4036" x2="353" y2="61.4036" stroke="#979797" stroke-miterlimit="3.86874"/>
<line x1="352.5" y1="61" x2="352.5" y2="55" stroke="#979797" stroke-miterlimit="3.86874"/>
<line x1="335.55" y1="69" x2="335.55" y2="61.2572" stroke="#979797" stroke-miterlimit="3.86874"/>
<line x1="319.5" y1="61.2572" x2="319.5" y2="55.2572" stroke="#979797" stroke-miterlimit="3.86874"/>
<line y1="-0.5" x2="228" y2="-0.5" transform="matrix(1 -1.14644e-07 -6.66652e-08 -1 29 26.1859)" stroke="#979797" stroke-miterlimit="3.86874"/>
<line y1="-0.5" x2="5.23019" y2="-0.5" transform="matrix(6.64714e-08 1 1 -8.80299e-08 257 26.9735)" stroke="#979797" stroke-miterlimit="3.86874"/>
<line y1="-0.5" x2="6.74935" y2="-0.5" transform="matrix(6.64714e-08 1 1 -8.80299e-08 143.332 20)" stroke="#979797" stroke-miterlimit="3.86874"/>
<line y1="-0.5" x2="5.23019" y2="-0.5" transform="matrix(6.64714e-08 1 1 -8.80299e-08 29.8604 26.7494)" stroke="#979797" stroke-miterlimit="3.86874"/>
<line x1="311" y1="26.6859" x2="274" y2="26.6859" stroke="#979797" stroke-miterlimit="3.86874"/>
<line x1="274.5" y1="26.9735" x2="274.5" y2="32.2037" stroke="#979797" stroke-miterlimit="3.86874"/>
<line x1="292.946" y1="20" x2="292.946" y2="26.7494" stroke="#979797" stroke-miterlimit="3.86874"/>
<line x1="310.5" y1="27" x2="310.5" y2="32.2302" stroke="#979797" stroke-miterlimit="3.86874"/>
<path d="M8.29688 49.2656L7.44531 50.125L2.19531 45.7422L7.44531 41.3594L8.29688 42.2266L4.03906 45.7266L8.29688 49.2656ZM16.2109 50L16.1797 48.9453C15.7526 49.3672 15.3177 49.6719 14.875 49.8594C14.4375 50.0469 13.9766 50.1406 13.4922 50.1406C13.0443 50.1406 12.6615 50.0833 12.3438 49.9688C12.026 49.8542 11.763 49.6979 11.5547 49.5C11.3516 49.2969 11.2005 49.0599 11.1016 48.7891C11.0078 48.5182 10.9609 48.224 10.9609 47.9062C10.9609 47.1198 11.2526 46.5052 11.8359 46.0625C12.4245 45.6146 13.2917 45.3906 14.4375 45.3906H16.0625V44.7031C16.0625 44.2396 15.9141 43.8698 15.6172 43.5938C15.3203 43.3125 14.8672 43.1719 14.2578 43.1719C13.8151 43.1719 13.3776 43.2214 12.9453 43.3203C12.5182 43.4193 12.0755 43.5599 11.6172 43.7422V42.5156C11.7891 42.4531 11.9792 42.3932 12.1875 42.3359C12.401 42.2734 12.625 42.2188 12.8594 42.1719C13.0938 42.125 13.3385 42.0885 13.5938 42.0625C13.849 42.0312 14.1068 42.0156 14.3672 42.0156C14.8411 42.0156 15.2682 42.0677 15.6484 42.1719C16.0286 42.276 16.349 42.4349 16.6094 42.6484C16.875 42.862 17.0781 43.1302 17.2188 43.4531C17.3594 43.776 17.4297 44.1562 17.4297 44.5938V50H16.2109ZM16.0625 46.4297H14.3359C13.9974 46.4297 13.7057 46.4635 13.4609 46.5312C13.2161 46.599 13.0156 46.6953 12.8594 46.8203C12.7031 46.9453 12.5859 47.0964 12.5078 47.2734C12.4349 47.4453 12.3984 47.6406 12.3984 47.8594C12.3984 48.0104 12.4219 48.1562 12.4688 48.2969C12.5156 48.4323 12.5911 48.5547 12.6953 48.6641C12.7995 48.7682 12.9349 48.8516 13.1016 48.9141C13.2682 48.9766 13.4714 49.0078 13.7109 49.0078C14.0234 49.0078 14.3802 48.9141 14.7812 48.7266C15.1875 48.5339 15.6146 48.2318 16.0625 47.8203V46.4297ZM35.0703 50H33.7109V44.9922C33.7109 44.388 33.5964 43.9375 33.3672 43.6406C33.1432 43.3385 32.8203 43.1875 32.3984 43.1875C32.2161 43.1875 32.0443 43.2135 31.8828 43.2656C31.7266 43.3125 31.5625 43.3984 31.3906 43.5234C31.2188 43.6432 31.0312 43.8073 30.8281 44.0156C30.625 44.224 30.3906 44.4844 30.125 44.7969V50H28.7656V38.9609H30.125V42.1562L30.0781 43.3906C30.2917 43.1354 30.5 42.9219 30.7031 42.75C30.9115 42.5729 31.1172 42.4297 31.3203 42.3203C31.5286 42.2109 31.7396 42.1328 31.9531 42.0859C32.1667 42.0391 32.388 42.0156 32.6172 42.0156C33.3984 42.0156 34.0026 42.2552 34.4297 42.7344C34.8568 43.2083 35.0703 43.9245 35.0703 44.8828V50ZM37.8828 42.1562H39.125L39.1641 43.6016C39.6276 43.0443 40.0833 42.6406 40.5312 42.3906C40.9844 42.1406 41.4401 42.0156 41.8984 42.0156C42.7109 42.0156 43.3255 42.2786 43.7422 42.8047C44.1641 43.3307 44.3594 44.112 44.3281 45.1484H42.9531C42.9688 44.4609 42.8672 43.9635 42.6484 43.6562C42.4349 43.3438 42.1198 43.1875 41.7031 43.1875C41.5208 43.1875 41.3359 43.2214 41.1484 43.2891C40.9661 43.3516 40.776 43.4557 40.5781 43.6016C40.3854 43.7422 40.1797 43.9245 39.9609 44.1484C39.7422 44.3724 39.5078 44.6432 39.2578 44.9609V50H37.8828V42.1562ZM52.9844 45.6641C52.9844 45.8568 52.9818 46.0182 52.9766 46.1484C52.9714 46.2786 52.9635 46.401 52.9531 46.5156H47.4453C47.4453 47.3177 47.6693 47.9349 48.1172 48.3672C48.5651 48.7943 49.2109 49.0078 50.0547 49.0078C50.2839 49.0078 50.513 49 50.7422 48.9844C50.9714 48.9635 51.1927 48.9375 51.4062 48.9062C51.6198 48.875 51.8229 48.8411 52.0156 48.8047C52.2135 48.763 52.3958 48.7188 52.5625 48.6719V49.7891C52.1927 49.8932 51.7734 49.9766 51.3047 50.0391C50.8411 50.1068 50.3594 50.1406 49.8594 50.1406C49.1875 50.1406 48.6094 50.0495 48.125 49.8672C47.6406 49.6849 47.2422 49.4219 46.9297 49.0781C46.6224 48.7292 46.3932 48.3047 46.2422 47.8047C46.0964 47.2995 46.0234 46.7292 46.0234 46.0938C46.0234 45.5417 46.1016 45.0208 46.2578 44.5312C46.4193 44.0365 46.651 43.6042 46.9531 43.2344C47.2604 42.8594 47.6354 42.5625 48.0781 42.3438C48.5208 42.125 49.0234 42.0156 49.5859 42.0156C50.1328 42.0156 50.6172 42.1016 51.0391 42.2734C51.4609 42.4453 51.8151 42.6901 52.1016 43.0078C52.3932 43.3203 52.612 43.7031 52.7578 44.1562C52.9089 44.6042 52.9844 45.1068 52.9844 45.6641ZM51.5703 45.4688C51.5859 45.1198 51.5521 44.8021 51.4688 44.5156C51.3854 44.224 51.2552 43.974 51.0781 43.7656C50.9062 43.5573 50.6901 43.3958 50.4297 43.2812C50.1693 43.1615 49.8672 43.1016 49.5234 43.1016C49.2266 43.1016 48.9557 43.1589 48.7109 43.2734C48.4661 43.388 48.2552 43.5495 48.0781 43.7578C47.901 43.9661 47.7578 44.2161 47.6484 44.5078C47.5391 44.7995 47.4714 45.1198 47.4453 45.4688H51.5703ZM62.1172 40.2266C61.4036 40.0755 60.7891 40 60.2734 40C59.0495 40 58.4375 40.6406 58.4375 41.9219V43.2969H61.875V44.4297H58.4375V50H57.0547V44.4297H54.5312V43.2969H57.0547V42C57.0547 39.9115 58.1432 38.8672 60.3203 38.8672C60.862 38.8672 61.4609 38.9297 62.1172 39.0547V40.2266ZM70.4609 44.9531H63.7422V43.8047H70.4609V44.9531ZM70.4609 47.6719H63.7422V46.5234H70.4609V47.6719ZM75.2422 38.9609L75.0234 42.625H73.7422L73.5156 38.9609H75.2422ZM78.2812 38.9609L78.0625 42.625H76.7812L76.5547 38.9609H78.2812ZM251.18 38.9609L250.961 42.625H249.68L249.453 38.9609H251.18ZM254.219 38.9609L254 42.625H252.719L252.492 38.9609H254.219ZM257.867 42.2266L258.711 41.3594L263.961 45.7422L258.711 50.125L257.867 49.2656L262.125 45.7578L257.867 42.2266ZM324.984 49.2656L324.133 50.125L318.883 45.7422L324.133 41.3594L324.984 42.2266L320.727 45.7266L324.984 49.2656ZM334.164 38.9609L328.805 51.6797H327.508L332.867 38.9609H334.164ZM341.695 50L341.664 48.9453C341.237 49.3672 340.802 49.6719 340.359 49.8594C339.922 50.0469 339.461 50.1406 338.977 50.1406C338.529 50.1406 338.146 50.0833 337.828 49.9688C337.51 49.8542 337.247 49.6979 337.039 49.5C336.836 49.2969 336.685 49.0599 336.586 48.7891C336.492 48.5182 336.445 48.224 336.445 47.9062C336.445 47.1198 336.737 46.5052 337.32 46.0625C337.909 45.6146 338.776 45.3906 339.922 45.3906H341.547V44.7031C341.547 44.2396 341.398 43.8698 341.102 43.5938C340.805 43.3125 340.352 43.1719 339.742 43.1719C339.299 43.1719 338.862 43.2214 338.43 43.3203C338.003 43.4193 337.56 43.5599 337.102 43.7422V42.5156C337.273 42.4531 337.464 42.3932 337.672 42.3359C337.885 42.2734 338.109 42.2188 338.344 42.1719C338.578 42.125 338.823 42.0885 339.078 42.0625C339.333 42.0312 339.591 42.0156 339.852 42.0156C340.326 42.0156 340.753 42.0677 341.133 42.1719C341.513 42.276 341.833 42.4349 342.094 42.6484C342.359 42.862 342.562 43.1302 342.703 43.4531C342.844 43.776 342.914 44.1562 342.914 44.5938V50H341.695ZM341.547 46.4297H339.82C339.482 46.4297 339.19 46.4635 338.945 46.5312C338.701 46.599 338.5 46.6953 338.344 46.8203C338.188 46.9453 338.07 47.0964 337.992 47.2734C337.919 47.4453 337.883 47.6406 337.883 47.8594C337.883 48.0104 337.906 48.1562 337.953 48.2969C338 48.4323 338.076 48.5547 338.18 48.6641C338.284 48.7682 338.419 48.8516 338.586 48.9141C338.753 48.9766 338.956 49.0078 339.195 49.0078C339.508 49.0078 339.865 48.9141 340.266 48.7266C340.672 48.5339 341.099 48.2318 341.547 47.8203V46.4297ZM345.836 42.2266L346.68 41.3594L351.93 45.7422L346.68 50.125L345.836 49.2656L350.094 45.7578L345.836 42.2266Z" fill="black"/>
<path d="M87.8516 50H86.4922V44.9922C86.4922 44.388 86.3776 43.9375 86.1484 43.6406C85.9245 43.3385 85.6016 43.1875 85.1797 43.1875C84.9974 43.1875 84.8255 43.2135 84.6641 43.2656C84.5078 43.3125 84.3438 43.3984 84.1719 43.5234C84 43.6432 83.8125 43.8073 83.6094 44.0156C83.4062 44.224 83.1719 44.4844 82.9062 44.7969V50H81.5469V38.9609H82.9062V42.1562L82.8594 43.3906C83.0729 43.1354 83.2812 42.9219 83.4844 42.75C83.6927 42.5729 83.8984 42.4297 84.1016 42.3203C84.3099 42.2109 84.5208 42.1328 84.7344 42.0859C84.9479 42.0391 85.1693 42.0156 85.3984 42.0156C86.1797 42.0156 86.7839 42.2552 87.2109 42.7344C87.638 43.2083 87.8516 43.9245 87.8516 44.8828V50ZM96.6641 49.8906C96.3568 49.9688 96.0391 50.0234 95.7109 50.0547C95.3828 50.0911 95.0495 50.1094 94.7109 50.1094C93.7266 50.1094 92.9922 49.888 92.5078 49.4453C92.0234 48.9974 91.7812 48.3125 91.7812 47.3906V43.2969H89.5859V42.1562H91.7812V40L93.1406 39.6484V42.1562H96.6641V43.2969H93.1406V47.2812C93.1406 47.8438 93.2891 48.2656 93.5859 48.5469C93.888 48.8229 94.3307 48.9609 94.9141 48.9609C95.1641 48.9609 95.4375 48.9427 95.7344 48.9062C96.0312 48.8646 96.3411 48.8021 96.6641 48.7188V49.8906ZM105.461 49.8906C105.154 49.9688 104.836 50.0234 104.508 50.0547C104.18 50.0911 103.846 50.1094 103.508 50.1094C102.523 50.1094 101.789 49.888 101.305 49.4453C100.82 48.9974 100.578 48.3125 100.578 47.3906V43.2969H98.3828V42.1562H100.578V40L101.938 39.6484V42.1562H105.461V43.2969H101.938V47.2812C101.938 47.8438 102.086 48.2656 102.383 48.5469C102.685 48.8229 103.128 48.9609 103.711 48.9609C103.961 48.9609 104.234 48.9427 104.531 48.9062C104.828 48.8646 105.138 48.8021 105.461 48.7188V49.8906ZM114.641 45.9375C114.641 46.6354 114.542 47.2448 114.344 47.7656C114.151 48.2865 113.883 48.7188 113.539 49.0625C113.195 49.4062 112.789 49.6641 112.32 49.8359C111.852 50.0078 111.344 50.0938 110.797 50.0938C110.547 50.0938 110.297 50.0807 110.047 50.0547C109.802 50.0286 109.552 49.9844 109.297 49.9219V53.2031H107.938V42.1562H109.148L109.234 43.4688C109.625 42.9323 110.042 42.5573 110.484 42.3438C110.927 42.125 111.406 42.0156 111.922 42.0156C112.37 42.0156 112.763 42.1094 113.102 42.2969C113.44 42.4844 113.724 42.75 113.953 43.0938C114.182 43.4323 114.354 43.8438 114.469 44.3281C114.583 44.8073 114.641 45.3438 114.641 45.9375ZM113.25 46C113.25 45.5885 113.219 45.2109 113.156 44.8672C113.099 44.5234 113.005 44.2292 112.875 43.9844C112.745 43.7396 112.578 43.5495 112.375 43.4141C112.172 43.2734 111.93 43.2031 111.648 43.2031C111.477 43.2031 111.302 43.2318 111.125 43.2891C110.948 43.3411 110.763 43.4323 110.57 43.5625C110.383 43.6875 110.182 43.8568 109.969 44.0703C109.76 44.2786 109.536 44.5391 109.297 44.8516V48.6562C109.547 48.7604 109.81 48.8438 110.086 48.9062C110.362 48.9635 110.633 48.9922 110.898 48.9922C111.633 48.9922 112.208 48.7448 112.625 48.25C113.042 47.75 113.25 47 113.25 46ZM119.883 42.0156C120.044 42.0156 120.198 42.0495 120.344 42.1172C120.49 42.1797 120.617 42.2656 120.727 42.375C120.836 42.4844 120.922 42.612 120.984 42.7578C121.052 42.9036 121.086 43.0573 121.086 43.2188C121.086 43.3854 121.052 43.5417 120.984 43.6875C120.922 43.8281 120.836 43.9531 120.727 44.0625C120.617 44.1719 120.49 44.2578 120.344 44.3203C120.198 44.3828 120.044 44.4141 119.883 44.4141C119.716 44.4141 119.56 44.3828 119.414 44.3203C119.273 44.2578 119.148 44.1719 119.039 44.0625C118.93 43.9531 118.844 43.8281 118.781 43.6875C118.719 43.5417 118.688 43.3854 118.688 43.2188C118.688 43.0573 118.719 42.9036 118.781 42.7578C118.844 42.612 118.93 42.4844 119.039 42.375C119.148 42.2656 119.273 42.1797 119.414 42.1172C119.56 42.0495 119.716 42.0156 119.883 42.0156ZM119.883 47.7422C120.044 47.7422 120.198 47.776 120.344 47.8438C120.49 47.9062 120.617 47.9922 120.727 48.1016C120.836 48.2109 120.922 48.3385 120.984 48.4844C121.052 48.6302 121.086 48.7839 121.086 48.9453C121.086 49.112 121.052 49.2682 120.984 49.4141C120.922 49.5547 120.836 49.6797 120.727 49.7891C120.617 49.8984 120.49 49.9844 120.344 50.0469C120.198 50.1094 120.044 50.1406 119.883 50.1406C119.716 50.1406 119.56 50.1094 119.414 50.0469C119.273 49.9844 119.148 49.8984 119.039 49.7891C118.93 49.6797 118.844 49.5547 118.781 49.4141C118.719 49.2682 118.688 49.112 118.688 48.9453C118.688 48.7839 118.719 48.6302 118.781 48.4844C118.844 48.3385 118.93 48.2109 119.039 48.1016C119.148 47.9922 119.273 47.9062 119.414 47.8438C119.56 47.776 119.716 47.7422 119.883 47.7422ZM131.836 38.9609L126.477 51.6797H125.18L130.539 38.9609H131.836ZM140.633 38.9609L135.273 51.6797H133.977L139.336 38.9609H140.633ZM150.391 42.1562L149.25 50H147.602L146.469 46.7188L146.242 45.9219L145.984 46.7656L144.898 50H143.297L142.164 42.1562H143.492L144.148 47.4844L144.289 48.6719L144.625 47.6328L145.766 44.1094H146.742L147.969 47.5859L148.32 48.625L148.438 47.5234L149.047 42.1562H150.391ZM159.188 42.1562L158.047 50H156.398L155.266 46.7188L155.039 45.9219L154.781 46.7656L153.695 50H152.094L150.961 42.1562H152.289L152.945 47.4844L153.086 48.6719L153.422 47.6328L154.562 44.1094H155.539L156.766 47.5859L157.117 48.625L157.234 47.5234L157.844 42.1562H159.188ZM167.984 42.1562L166.844 50H165.195L164.062 46.7188L163.836 45.9219L163.578 46.7656L162.492 50H160.891L159.758 42.1562H161.086L161.742 47.4844L161.883 48.6719L162.219 47.6328L163.359 44.1094H164.336L165.562 47.5859L165.914 48.625L166.031 47.5234L166.641 42.1562H167.984ZM172.602 47.5391C172.779 47.5391 172.945 47.5729 173.102 47.6406C173.263 47.7083 173.401 47.8021 173.516 47.9219C173.635 48.0417 173.729 48.1823 173.797 48.3438C173.865 48.5 173.898 48.6693 173.898 48.8516C173.898 49.0286 173.865 49.1953 173.797 49.3516C173.729 49.5078 173.635 49.6458 173.516 49.7656C173.401 49.8802 173.263 49.9714 173.102 50.0391C172.945 50.1068 172.779 50.1406 172.602 50.1406C172.419 50.1406 172.25 50.1068 172.094 50.0391C171.938 49.9714 171.799 49.8802 171.68 49.7656C171.565 49.6458 171.474 49.5078 171.406 49.3516C171.339 49.1953 171.305 49.0286 171.305 48.8516C171.305 48.6693 171.339 48.5 171.406 48.3438C171.474 48.1823 171.565 48.0417 171.68 47.9219C171.799 47.8021 171.938 47.7083 172.094 47.6406C172.25 47.5729 172.419 47.5391 172.602 47.5391ZM180.984 43.2812H178.664V42.1562H182.359V48.8672H184.695V50H178.406V48.8672H180.984V43.2812ZM181.461 38.8672C181.612 38.8672 181.753 38.8958 181.883 38.9531C182.013 39.0052 182.125 39.0807 182.219 39.1797C182.318 39.2786 182.393 39.3932 182.445 39.5234C182.503 39.6484 182.531 39.7865 182.531 39.9375C182.531 40.0833 182.503 40.2214 182.445 40.3516C182.393 40.4818 182.318 40.5964 182.219 40.6953C182.125 40.7943 182.013 40.8724 181.883 40.9297C181.753 40.9818 181.612 41.0078 181.461 41.0078C181.31 41.0078 181.169 40.9818 181.039 40.9297C180.909 40.8724 180.794 40.7943 180.695 40.6953C180.602 40.5964 180.526 40.4818 180.469 40.3516C180.417 40.2214 180.391 40.0833 180.391 39.9375C180.391 39.7865 180.417 39.6484 180.469 39.5234C180.526 39.3932 180.602 39.2786 180.695 39.1797C180.794 39.0807 180.909 39.0052 181.039 38.9531C181.169 38.8958 181.31 38.8672 181.461 38.8672ZM192.703 50V44.3672C192.703 44.1224 192.693 43.9219 192.672 43.7656C192.656 43.6094 192.628 43.487 192.586 43.3984C192.549 43.3047 192.5 43.2396 192.438 43.2031C192.38 43.1667 192.307 43.1484 192.219 43.1484C192.115 43.1484 192.018 43.1797 191.93 43.2422C191.841 43.3047 191.745 43.4062 191.641 43.5469C191.542 43.6875 191.43 43.875 191.305 44.1094C191.185 44.3385 191.042 44.6224 190.875 44.9609V50H189.633V44.5156C189.633 44.2292 189.622 43.9974 189.602 43.8203C189.586 43.6432 189.557 43.5052 189.516 43.4062C189.479 43.3073 189.43 43.2396 189.367 43.2031C189.305 43.1667 189.229 43.1484 189.141 43.1484C189.047 43.1484 188.958 43.1745 188.875 43.2266C188.792 43.2786 188.698 43.3724 188.594 43.5078C188.495 43.6432 188.383 43.8281 188.258 44.0625C188.133 44.2969 187.984 44.5964 187.812 44.9609V50H186.562V42.1562H187.602L187.664 43.6484C187.799 43.3516 187.93 43.099 188.055 42.8906C188.185 42.6823 188.318 42.5156 188.453 42.3906C188.589 42.2604 188.732 42.1667 188.883 42.1094C189.039 42.0469 189.211 42.0156 189.398 42.0156C189.82 42.0156 190.141 42.1536 190.359 42.4297C190.578 42.7057 190.688 43.1328 190.688 43.7109C190.812 43.4401 190.935 43.2005 191.055 42.9922C191.174 42.7786 191.302 42.6016 191.438 42.4609C191.578 42.3151 191.732 42.2057 191.898 42.1328C192.065 42.0547 192.258 42.0156 192.477 42.0156C193.461 42.0156 193.953 42.7734 193.953 44.2891V50H192.703ZM195.508 46.2422C195.508 45.5755 195.599 44.9844 195.781 44.4688C195.964 43.9479 196.221 43.5104 196.555 43.1562C196.893 42.7969 197.297 42.526 197.766 42.3438C198.24 42.1562 198.766 42.0625 199.344 42.0625C199.594 42.0625 199.839 42.0781 200.078 42.1094C200.323 42.1406 200.562 42.1901 200.797 42.2578V38.9609H202.164V50H200.945L200.898 48.5156C200.518 49.0677 200.107 49.4766 199.664 49.7422C199.221 50.0078 198.742 50.1406 198.227 50.1406C197.779 50.1406 197.383 50.0469 197.039 49.8594C196.701 49.6719 196.417 49.4089 196.188 49.0703C195.964 48.7266 195.794 48.3151 195.68 47.8359C195.565 47.3568 195.508 46.8255 195.508 46.2422ZM196.898 46.1562C196.898 47.1042 197.036 47.8125 197.312 48.2812C197.594 48.7448 197.99 48.9766 198.5 48.9766C198.844 48.9766 199.206 48.8229 199.586 48.5156C199.971 48.2083 200.375 47.7526 200.797 47.1484V43.5078C200.573 43.4036 200.326 43.3255 200.055 43.2734C199.784 43.2161 199.516 43.1875 199.25 43.1875C198.51 43.1875 197.932 43.4271 197.516 43.9062C197.104 44.3854 196.898 45.1354 196.898 46.1562ZM211.406 45.9375C211.406 46.5885 211.315 47.1719 211.133 47.6875C210.956 48.1979 210.701 48.6328 210.367 48.9922C210.039 49.3464 209.638 49.6198 209.164 49.8125C208.69 50 208.156 50.0938 207.562 50.0938C207.099 50.0938 206.625 50.0495 206.141 49.9609C205.656 49.8724 205.177 49.7318 204.703 49.5391V38.9609H206.062V42L206 43.4531C206.391 42.9271 206.807 42.5573 207.25 42.3438C207.698 42.125 208.177 42.0156 208.688 42.0156C209.135 42.0156 209.529 42.1094 209.867 42.2969C210.206 42.4844 210.49 42.75 210.719 43.0938C210.948 43.4323 211.12 43.8438 211.234 44.3281C211.349 44.8073 211.406 45.3438 211.406 45.9375ZM210.016 46C210.016 45.5885 209.984 45.2109 209.922 44.8672C209.865 44.5234 209.771 44.2292 209.641 43.9844C209.51 43.7396 209.344 43.5495 209.141 43.4141C208.938 43.2734 208.695 43.2031 208.414 43.2031C208.242 43.2031 208.068 43.2318 207.891 43.2891C207.714 43.3411 207.529 43.4323 207.336 43.5625C207.148 43.6875 206.948 43.8568 206.734 44.0703C206.526 44.2786 206.302 44.5391 206.062 44.8516V48.6562C206.328 48.7604 206.599 48.8438 206.875 48.9062C207.151 48.9635 207.414 48.9922 207.664 48.9922C207.977 48.9922 208.273 48.9427 208.555 48.8438C208.841 48.7448 209.091 48.5807 209.305 48.3516C209.523 48.1172 209.695 47.8099 209.82 47.4297C209.951 47.0443 210.016 46.5677 210.016 46ZM216.586 47.5391C216.763 47.5391 216.93 47.5729 217.086 47.6406C217.247 47.7083 217.385 47.8021 217.5 47.9219C217.62 48.0417 217.714 48.1823 217.781 48.3438C217.849 48.5 217.883 48.6693 217.883 48.8516C217.883 49.0286 217.849 49.1953 217.781 49.3516C217.714 49.5078 217.62 49.6458 217.5 49.7656C217.385 49.8802 217.247 49.9714 217.086 50.0391C216.93 50.1068 216.763 50.1406 216.586 50.1406C216.404 50.1406 216.234 50.1068 216.078 50.0391C215.922 49.9714 215.784 49.8802 215.664 49.7656C215.549 49.6458 215.458 49.5078 215.391 49.3516C215.323 49.1953 215.289 49.0286 215.289 48.8516C215.289 48.6693 215.323 48.5 215.391 48.3438C215.458 48.1823 215.549 48.0417 215.664 47.9219C215.784 47.8021 215.922 47.7083 216.078 47.6406C216.234 47.5729 216.404 47.5391 216.586 47.5391ZM228.391 49.7109C228.036 49.8464 227.672 49.9453 227.297 50.0078C226.927 50.0755 226.544 50.1094 226.148 50.1094C224.909 50.1094 223.953 49.7734 223.281 49.1016C222.615 48.4297 222.281 47.4479 222.281 46.1562C222.281 45.5365 222.378 44.974 222.57 44.4688C222.763 43.9635 223.034 43.5312 223.383 43.1719C223.732 42.8125 224.148 42.5365 224.633 42.3438C225.117 42.1458 225.651 42.0469 226.234 42.0469C226.641 42.0469 227.021 42.0755 227.375 42.1328C227.729 42.1901 228.068 42.2839 228.391 42.4141V43.7109C228.052 43.5339 227.706 43.4062 227.352 43.3281C227.003 43.2448 226.641 43.2031 226.266 43.2031C225.917 43.2031 225.586 43.2708 225.273 43.4062C224.966 43.5365 224.695 43.7266 224.461 43.9766C224.227 44.2266 224.042 44.5312 223.906 44.8906C223.771 45.25 223.703 45.6562 223.703 46.1094C223.703 47.0573 223.932 47.7682 224.391 48.2422C224.854 48.7109 225.495 48.9453 226.312 48.9453C226.682 48.9453 227.039 48.9036 227.383 48.8203C227.732 48.737 228.068 48.612 228.391 48.4453V49.7109ZM237.922 46.0156C237.922 46.625 237.836 47.1849 237.664 47.6953C237.492 48.2005 237.245 48.6354 236.922 49C236.599 49.3594 236.206 49.6406 235.742 49.8438C235.279 50.0417 234.753 50.1406 234.164 50.1406C233.602 50.1406 233.096 50.0547 232.648 49.8828C232.206 49.7057 231.828 49.4479 231.516 49.1094C231.208 48.7708 230.971 48.3516 230.805 47.8516C230.643 47.3516 230.562 46.776 230.562 46.125C230.562 45.5156 230.648 44.9609 230.82 44.4609C230.992 43.9557 231.24 43.5234 231.562 43.1641C231.885 42.7995 232.279 42.5182 232.742 42.3203C233.206 42.1172 233.732 42.0156 234.32 42.0156C234.883 42.0156 235.385 42.1042 235.828 42.2812C236.276 42.4531 236.654 42.7083 236.961 43.0469C237.273 43.3802 237.51 43.7969 237.672 44.2969C237.839 44.7969 237.922 45.3698 237.922 46.0156ZM236.531 46.0781C236.531 45.5938 236.477 45.1719 236.367 44.8125C236.263 44.4479 236.112 44.1458 235.914 43.9062C235.716 43.6615 235.474 43.4792 235.188 43.3594C234.906 43.2344 234.591 43.1719 234.242 43.1719C233.836 43.1719 233.487 43.2526 233.195 43.4141C232.909 43.5703 232.672 43.7812 232.484 44.0469C232.302 44.3125 232.167 44.6224 232.078 44.9766C231.995 45.3255 231.953 45.6927 231.953 46.0781C231.953 46.5625 232.005 46.987 232.109 47.3516C232.219 47.7161 232.372 48.0208 232.57 48.2656C232.768 48.5052 233.008 48.6875 233.289 48.8125C233.57 48.9323 233.888 48.9922 234.242 48.9922C234.648 48.9922 234.995 48.9141 235.281 48.7578C235.573 48.5964 235.81 48.3828 235.992 48.1172C236.18 47.8516 236.315 47.5443 236.398 47.1953C236.487 46.8411 236.531 46.4688 236.531 46.0781ZM245.484 50V44.3672C245.484 44.1224 245.474 43.9219 245.453 43.7656C245.438 43.6094 245.409 43.487 245.367 43.3984C245.331 43.3047 245.281 43.2396 245.219 43.2031C245.161 43.1667 245.089 43.1484 245 43.1484C244.896 43.1484 244.799 43.1797 244.711 43.2422C244.622 43.3047 244.526 43.4062 244.422 43.5469C244.323 43.6875 244.211 43.875 244.086 44.1094C243.966 44.3385 243.823 44.6224 243.656 44.9609V50H242.414V44.5156C242.414 44.2292 242.404 43.9974 242.383 43.8203C242.367 43.6432 242.339 43.5052 242.297 43.4062C242.26 43.3073 242.211 43.2396 242.148 43.2031C242.086 43.1667 242.01 43.1484 241.922 43.1484C241.828 43.1484 241.74 43.1745 241.656 43.2266C241.573 43.2786 241.479 43.3724 241.375 43.5078C241.276 43.6432 241.164 43.8281 241.039 44.0625C240.914 44.2969 240.766 44.5964 240.594 44.9609V50H239.344V42.1562H240.383L240.445 43.6484C240.581 43.3516 240.711 43.099 240.836 42.8906C240.966 42.6823 241.099 42.5156 241.234 42.3906C241.37 42.2604 241.513 42.1667 241.664 42.1094C241.82 42.0469 241.992 42.0156 242.18 42.0156C242.602 42.0156 242.922 42.1536 243.141 42.4297C243.359 42.7057 243.469 43.1328 243.469 43.7109C243.594 43.4401 243.716 43.2005 243.836 42.9922C243.956 42.7786 244.083 42.6016 244.219 42.4609C244.359 42.3151 244.513 42.2057 244.68 42.1328C244.846 42.0547 245.039 42.0156 245.258 42.0156C246.242 42.0156 246.734 42.7734 246.734 44.2891V50H245.484Z" fill="#CC3615"/>
<path d="M277.523 40.9609H275.172V39.7891H281.281V40.9609H278.93V48.8125H281.281V50H275.172V48.8125H277.523V40.9609ZM291.039 50H289.68L289.477 43.6328L289.391 41.1875L288.914 42.6094L287.406 46.6719H286.445L285.008 42.7656L284.531 41.1875L284.5 43.7422L284.32 50H283.008L283.508 39.7891H285.156L286.531 43.6328L286.977 44.9297L287.406 43.6328L288.852 39.7891H290.547L291.039 50ZM299.648 44.7812C299.648 45.2708 299.609 45.7396 299.531 46.1875C299.458 46.6354 299.339 47.0521 299.172 47.4375C299.005 47.8229 298.789 48.1745 298.523 48.4922C298.258 48.8047 297.932 49.0729 297.547 49.2969C297.161 49.5208 296.714 49.6953 296.203 49.8203C295.693 49.9401 295.112 50 294.461 50H292.273V39.7891H294.906C296.5 39.7891 297.688 40.2005 298.469 41.0234C299.255 41.8411 299.648 43.0938 299.648 44.7812ZM298.188 44.8828C298.188 44.1589 298.12 43.5469 297.984 43.0469C297.849 42.5469 297.643 42.1432 297.367 41.8359C297.091 41.5286 296.745 41.3073 296.328 41.1719C295.911 41.0312 295.422 40.9609 294.859 40.9609H293.664V48.7969H294.703C297.026 48.7969 298.188 47.4922 298.188 44.8828ZM308.156 46.9453C308.156 47.4349 308.06 47.8698 307.867 48.25C307.68 48.625 307.409 48.9427 307.055 49.2031C306.706 49.4635 306.281 49.6615 305.781 49.7969C305.286 49.9323 304.734 50 304.125 50H301.453V39.7891H304.375C306.651 39.7891 307.789 40.6172 307.789 42.2734C307.789 42.8255 307.656 43.2995 307.391 43.6953C307.13 44.0911 306.703 44.3854 306.109 44.5781C306.385 44.6302 306.646 44.7188 306.891 44.8438C307.141 44.9688 307.359 45.1302 307.547 45.3281C307.734 45.526 307.883 45.7604 307.992 46.0312C308.102 46.3021 308.156 46.6068 308.156 46.9453ZM306.344 42.4609C306.344 42.2526 306.312 42.0573 306.25 41.875C306.188 41.6875 306.078 41.5286 305.922 41.3984C305.766 41.263 305.555 41.1562 305.289 41.0781C305.023 41 304.688 40.9609 304.281 40.9609H302.844V44.1562H304.234C304.552 44.1562 304.839 44.1224 305.094 44.0547C305.354 43.987 305.576 43.8828 305.758 43.7422C305.945 43.6016 306.089 43.4271 306.188 43.2188C306.292 43.0052 306.344 42.7526 306.344 42.4609ZM306.68 46.9922C306.68 46.7318 306.625 46.4974 306.516 46.2891C306.406 46.0807 306.247 45.9062 306.039 45.7656C305.831 45.6198 305.576 45.5078 305.273 45.4297C304.977 45.3516 304.641 45.3125 304.266 45.3125H302.844V48.8281H304.312C305.109 48.8281 305.703 48.6797 306.094 48.3828C306.484 48.0859 306.68 47.6224 306.68 46.9922Z" fill="#1371FE"/>
<path d="M122.159 77.6092H122.671V78.2572H122.151C121.698 78.2572 121.335 78.2039 121.063 78.0972C120.796 77.9905 120.548 77.7985 120.319 77.5212C120.143 77.5852 119.874 77.6545 119.511 77.7292C118.903 77.8572 118.498 78.0225 118.295 78.2252C118.039 78.4705 117.911 78.8145 117.911 79.2572C117.911 79.7052 118.058 80.0519 118.351 80.2972C118.596 80.5052 118.911 80.6092 119.295 80.6092C119.882 80.6039 120.372 80.4625 120.767 80.1852V80.8332C120.314 81.1159 119.804 81.2572 119.239 81.2572C118.631 81.2572 118.14 81.0545 117.767 80.6492C117.431 80.2865 117.263 79.8199 117.263 79.2492C117.263 78.6359 117.444 78.1479 117.807 77.7852C117.967 77.6252 118.151 77.4999 118.359 77.4092C118.567 77.3185 118.882 77.2279 119.303 77.1372C119.703 77.0519 119.996 76.9692 120.183 76.8892C120.375 76.8092 120.54 76.6945 120.679 76.5452C120.242 75.7239 119.703 75.3132 119.063 75.3132C118.636 75.3132 118.188 75.5425 117.719 76.0012V75.3612C118.167 74.9079 118.644 74.6812 119.151 74.6812C119.556 74.6812 119.951 74.8305 120.335 75.1292C120.719 75.4279 121.058 75.8492 121.351 76.3932V76.7452C121.207 76.9532 121.039 77.1212 120.847 77.2492C121.13 77.4892 121.567 77.6092 122.159 77.6092ZM123.086 73.8732C122.824 73.8732 122.694 73.7399 122.694 73.4732C122.694 73.2119 122.824 73.0812 123.086 73.0812C123.342 73.0812 123.47 73.2119 123.47 73.4732C123.47 73.7399 123.342 73.8732 123.086 73.8732ZM124.11 73.8732C123.848 73.8732 123.718 73.7399 123.718 73.4732C123.718 73.2119 123.848 73.0812 124.11 73.0812C124.366 73.0812 124.494 73.2119 124.494 73.4732C124.494 73.7399 124.366 73.8732 124.11 73.8732ZM124.974 77.6092H125.502V78.2572H124.894C124.451 78.2572 124.102 78.1159 123.846 77.8332C123.59 78.1159 123.24 78.2572 122.798 78.2572H122.19V77.6092H122.718C123.24 77.6092 123.502 77.3425 123.502 76.8092V75.1532L124.19 74.7852V76.8092C124.19 77.3425 124.451 77.6092 124.974 77.6092ZM127.522 73.8652C127.26 73.8652 127.13 73.7319 127.13 73.4652C127.13 73.2039 127.26 73.0732 127.522 73.0732C127.778 73.0732 127.906 73.2039 127.906 73.4652C127.906 73.7319 127.778 73.8652 127.522 73.8652ZM128.514 77.6092H130.002V78.2572H128.05C127.842 78.2572 127.66 78.2385 127.506 78.2012C127.356 78.2385 127.175 78.2572 126.962 78.2572H125.018V77.6092H126.506C126.175 77.2305 126.01 76.8119 126.01 76.3532C126.01 75.8305 126.156 75.4145 126.45 75.1052C126.716 74.8225 127.068 74.6812 127.506 74.6812C128.007 74.6812 128.394 74.8625 128.666 75.2252C128.895 75.5239 129.01 75.8999 129.01 76.3532C129.01 76.8119 128.844 77.2305 128.514 77.6092ZM127.514 77.5372C127.759 77.4519 127.959 77.2972 128.114 77.0732C128.268 76.8439 128.346 76.5932 128.346 76.3212C128.346 76.0119 128.268 75.7692 128.114 75.5932C127.964 75.4119 127.762 75.3212 127.506 75.3212C127.25 75.3212 127.044 75.4119 126.89 75.5932C126.74 75.7745 126.666 76.0172 126.666 76.3212C126.666 76.5879 126.746 76.8359 126.906 77.0652C127.066 77.2945 127.268 77.4519 127.514 77.5372ZM129.526 78.2572V77.6092H129.95C130.504 77.6092 130.782 77.3185 130.782 76.7372V73.4652L131.478 73.0972V76.7452C131.478 77.2199 131.336 77.5959 131.054 77.8732C130.787 78.1292 130.438 78.2572 130.006 78.2572H129.526ZM132.915 78.2572V73.4652L133.603 73.0972V78.2572H132.915ZM137.628 73.8172C137.366 73.8172 137.236 73.6839 137.236 73.4172C137.236 73.1559 137.366 73.0252 137.628 73.0252C137.884 73.0252 138.012 73.1559 138.012 73.4172C138.012 73.6839 137.884 73.8172 137.628 73.8172ZM138.868 77.6092H139.396V78.2572H138.788C138.516 78.2572 138.281 78.2039 138.084 78.0972C138.036 78.6252 137.852 79.0465 137.532 79.3612C137.238 79.6492 136.87 79.7932 136.428 79.7932C136.107 79.7932 135.795 79.7132 135.491 79.5532V78.9532C135.763 79.1025 136.035 79.1772 136.308 79.1772C136.649 79.1772 136.916 79.0625 137.108 78.8332C137.3 78.6039 137.396 78.2865 137.396 77.8812V75.1532L138.084 74.7852V74.7932L138.092 74.7852V76.9692C138.14 77.3959 138.398 77.6092 138.868 77.6092ZM141.7 77.6092H142.228V78.2572H141.62C141.178 78.2572 140.828 78.1159 140.572 77.8332C140.316 78.1159 139.967 78.2572 139.524 78.2572H138.916V77.6092H139.444C139.967 77.6092 140.228 77.3425 140.228 76.8092V75.1532L140.916 74.7852V76.8092C140.916 77.3425 141.178 77.6092 141.7 77.6092ZM139.788 79.0572C140.044 79.0572 140.172 79.1905 140.172 79.4572C140.172 79.7185 140.044 79.8492 139.788 79.8492C139.527 79.8492 139.396 79.7185 139.396 79.4572C139.396 79.1905 139.527 79.0572 139.788 79.0572ZM140.804 79.0572C141.06 79.0572 141.188 79.1905 141.188 79.4572C141.188 79.7185 141.06 79.8492 140.804 79.8492C140.543 79.8492 140.412 79.7185 140.412 79.4572C140.412 79.1905 140.543 79.0572 140.804 79.0572ZM143.056 76.0892C143.056 75.6252 143.195 75.2652 143.472 75.0092C143.718 74.7905 144.038 74.6812 144.432 74.6812C144.939 74.6812 145.328 74.8679 145.6 75.2412C145.835 75.5559 145.952 75.9665 145.952 76.4732C145.952 77.0492 145.803 77.4999 145.504 77.8252C145.243 78.1132 144.902 78.2572 144.48 78.2572C144 78.2572 143.635 78.1239 143.384 77.8572C143.128 78.1239 142.784 78.2572 142.352 78.2572H141.744V77.6092H142.272C142.795 77.6092 143.056 77.3425 143.056 76.8092V76.0892ZM143.744 76.8652C143.744 77.3612 143.987 77.6092 144.472 77.6092C144.723 77.6092 144.918 77.5079 145.056 77.3052C145.2 77.1025 145.272 76.8199 145.272 76.4572C145.272 76.0999 145.198 75.8225 145.048 75.6252C144.899 75.4225 144.694 75.3212 144.432 75.3212C143.974 75.3212 143.744 75.5879 143.744 76.1212V76.8652ZM149.235 77.6092H149.763V78.2572H149.155C148.883 78.2572 148.648 78.2039 148.451 78.0972C148.403 78.6252 148.219 79.0465 147.899 79.3612C147.605 79.6492 147.237 79.7932 146.795 79.7932C146.475 79.7932 146.163 79.7132 145.859 79.5532V78.9532C146.131 79.1025 146.403 79.1772 146.675 79.1772C147.016 79.1772 147.283 79.0625 147.475 78.8332C147.667 78.6039 147.763 78.2865 147.763 77.8812V75.1532L148.451 74.7852V74.7932L148.459 74.7852V76.9692C148.507 77.3959 148.765 77.6092 149.235 77.6092ZM149.899 73.8172C149.638 73.8172 149.507 73.6839 149.507 73.4172C149.507 73.1559 149.638 73.0252 149.899 73.0252C150.155 73.0252 150.283 73.1559 150.283 73.4172C150.283 73.6839 150.155 73.8172 149.899 73.8172ZM150.915 73.8172C150.654 73.8172 150.523 73.6839 150.523 73.4172C150.523 73.1559 150.654 73.0252 150.915 73.0252C151.171 73.0252 151.299 73.1559 151.299 73.4172C151.299 73.6839 151.171 73.8172 150.915 73.8172ZM149.283 78.2572V77.6092H149.811C150.334 77.6092 150.595 77.3425 150.595 76.8092V75.1532L151.283 74.7852V76.8332C151.283 77.2865 151.147 77.6439 150.875 77.9052C150.625 78.1399 150.297 78.2572 149.891 78.2572H149.283Z" fill="black"/>
<path d="M316.668 73.8732C316.406 73.8732 316.276 73.7399 316.276 73.4732C316.276 73.2119 316.406 73.0812 316.668 73.0812C316.924 73.0812 317.052 73.2119 317.052 73.4732C317.052 73.7399 316.924 73.8732 316.668 73.8732ZM317.684 73.8732C317.422 73.8732 317.292 73.7399 317.292 73.4732C317.292 73.2119 317.422 73.0812 317.684 73.0812C317.94 73.0812 318.068 73.2119 318.068 73.4732C318.068 73.7399 317.94 73.8732 317.684 73.8732ZM318.54 77.8252C318.54 78.4545 318.31 78.9425 317.852 79.2892C317.43 79.6145 316.854 79.7772 316.124 79.7772C315.281 79.7772 314.646 79.5319 314.22 79.0412C313.905 78.6785 313.748 78.2305 313.748 77.6972C313.748 77.2492 313.86 76.8652 314.084 76.5452L314.748 76.4012C314.508 76.7799 314.388 77.1879 314.388 77.6252C314.388 78.0839 314.542 78.4519 314.852 78.7292C315.156 78.9959 315.58 79.1292 316.124 79.1292C317.222 79.1292 317.79 78.7212 317.828 77.9052C317.668 78.0492 317.425 78.1212 317.1 78.1212C316.63 78.1212 316.257 77.9399 315.98 77.5772C315.75 77.2679 315.636 76.8892 315.636 76.4412C315.636 75.8759 315.788 75.4332 316.092 75.1132C316.364 74.8252 316.721 74.6812 317.164 74.6812C317.617 74.6812 317.966 74.8225 318.212 75.1052C318.43 75.3559 318.54 75.6839 318.54 76.0892V77.8252ZM317.852 76.1212C317.852 75.5879 317.622 75.3212 317.164 75.3212C316.902 75.3212 316.697 75.4199 316.548 75.6172C316.398 75.8092 316.324 76.0785 316.324 76.4252C316.324 76.7665 316.396 77.0359 316.54 77.2332C316.684 77.4305 316.878 77.5292 317.124 77.5292C317.492 77.5292 317.734 77.4279 317.852 77.2252V76.1212ZM324.34 77.6092H324.868V78.2572H324.26C323.801 78.2572 323.446 78.1105 323.196 77.8172C322.929 78.1105 322.561 78.2572 322.092 78.2572H319.34L319.676 77.6092H320.844V74.5052L321.532 74.1372V77.6092H322.036C322.59 77.6092 322.868 77.3185 322.868 76.7372V73.4652L323.564 73.0972V76.7452C323.564 77.0545 323.622 77.2759 323.74 77.4092C323.862 77.5425 324.062 77.6092 324.34 77.6092ZM326.969 73.8172C326.708 73.8172 326.577 73.6839 326.577 73.4172C326.577 73.1559 326.708 73.0252 326.969 73.0252C327.225 73.0252 327.353 73.1559 327.353 73.4172C327.353 73.6839 327.225 73.8172 326.969 73.8172ZM328.697 77.6092V78.2572H324.385V77.6092H325.769C325.508 77.2732 325.377 76.8599 325.377 76.3692C325.377 75.8252 325.564 75.3932 325.937 75.0732C326.241 74.8172 326.593 74.6865 326.993 74.6812C327.558 74.6812 327.998 74.9079 328.313 75.3612V76.0092C327.972 75.5505 327.558 75.3212 327.073 75.3212C326.769 75.3212 326.524 75.4199 326.337 75.6172C326.156 75.8092 326.065 76.0679 326.065 76.3932C326.065 76.7612 326.174 77.0572 326.393 77.2812C326.617 77.4999 326.913 77.6092 327.281 77.6092H328.697ZM332.782 73.4652L333.478 73.0972V76.7452C333.478 77.2199 333.336 77.5959 333.054 77.8732C332.787 78.1292 332.438 78.2572 332.006 78.2572H329.254L329.59 77.6092H330.758V74.5052L331.446 74.1372V77.6092H331.95C332.504 77.6092 332.782 77.3185 332.782 76.7372V73.4652ZM334.915 78.2572V73.4652L335.603 73.0972V78.2572H334.915ZM339.628 73.8172C339.366 73.8172 339.236 73.6839 339.236 73.4172C339.236 73.1559 339.366 73.0252 339.628 73.0252C339.884 73.0252 340.012 73.1559 340.012 73.4172C340.012 73.6839 339.884 73.8172 339.628 73.8172ZM340.868 77.6092H341.396V78.2572H340.788C340.516 78.2572 340.281 78.2039 340.084 78.0972C340.036 78.6252 339.852 79.0465 339.532 79.3612C339.238 79.6492 338.87 79.7932 338.428 79.7932C338.107 79.7932 337.795 79.7132 337.491 79.5532V78.9532C337.763 79.1025 338.035 79.1772 338.308 79.1772C338.649 79.1772 338.916 79.0625 339.108 78.8332C339.3 78.6039 339.396 78.2865 339.396 77.8812V75.1532L340.084 74.7852V74.7932L340.092 74.7852V76.9692C340.14 77.3959 340.398 77.6092 340.868 77.6092ZM343.7 77.6092H344.228V78.2572H343.62C343.178 78.2572 342.828 78.1159 342.572 77.8332C342.316 78.1159 341.967 78.2572 341.524 78.2572H340.916V77.6092H341.444C341.967 77.6092 342.228 77.3425 342.228 76.8092V75.1532L342.916 74.7852V76.8092C342.916 77.3425 343.178 77.6092 343.7 77.6092ZM341.788 79.0572C342.044 79.0572 342.172 79.1905 342.172 79.4572C342.172 79.7185 342.044 79.8492 341.788 79.8492C341.527 79.8492 341.396 79.7185 341.396 79.4572C341.396 79.1905 341.527 79.0572 341.788 79.0572ZM342.804 79.0572C343.06 79.0572 343.188 79.1905 343.188 79.4572C343.188 79.7185 343.06 79.8492 342.804 79.8492C342.543 79.8492 342.412 79.7185 342.412 79.4572C342.412 79.1905 342.543 79.0572 342.804 79.0572ZM345.056 76.0892C345.056 75.6252 345.195 75.2652 345.472 75.0092C345.718 74.7905 346.038 74.6812 346.432 74.6812C346.939 74.6812 347.328 74.8679 347.6 75.2412C347.835 75.5559 347.952 75.9665 347.952 76.4732C347.952 77.0492 347.803 77.4999 347.504 77.8252C347.243 78.1132 346.902 78.2572 346.48 78.2572C346 78.2572 345.635 78.1239 345.384 77.8572C345.128 78.1239 344.784 78.2572 344.352 78.2572H343.744V77.6092H344.272C344.795 77.6092 345.056 77.3425 345.056 76.8092V76.0892ZM345.744 76.8652C345.744 77.3612 345.987 77.6092 346.472 77.6092C346.723 77.6092 346.918 77.5079 347.056 77.3052C347.2 77.1025 347.272 76.8199 347.272 76.4572C347.272 76.0999 347.198 75.8225 347.048 75.6252C346.899 75.4225 346.694 75.3212 346.432 75.3212C345.974 75.3212 345.744 75.5879 345.744 76.1212V76.8652ZM351.235 77.6092H351.763V78.2572H351.155C350.883 78.2572 350.648 78.2039 350.451 78.0972C350.403 78.6252 350.219 79.0465 349.899 79.3612C349.605 79.6492 349.237 79.7932 348.795 79.7932C348.475 79.7932 348.163 79.7132 347.859 79.5532V78.9532C348.131 79.1025 348.403 79.1772 348.675 79.1772C349.016 79.1772 349.283 79.0625 349.475 78.8332C349.667 78.6039 349.763 78.2865 349.763 77.8812V75.1532L350.451 74.7852V74.7932L350.459 74.7852V76.9692C350.507 77.3959 350.765 77.6092 351.235 77.6092ZM351.899 73.8172C351.638 73.8172 351.507 73.6839 351.507 73.4172C351.507 73.1559 351.638 73.0252 351.899 73.0252C352.155 73.0252 352.283 73.1559 352.283 73.4172C352.283 73.6839 352.155 73.8172 351.899 73.8172ZM352.915 73.8172C352.654 73.8172 352.523 73.6839 352.523 73.4172C352.523 73.1559 352.654 73.0252 352.915 73.0252C353.171 73.0252 353.299 73.1559 353.299 73.4172C353.299 73.6839 353.171 73.8172 352.915 73.8172ZM351.283 78.2572V77.6092H351.811C352.334 77.6092 352.595 77.3425 352.595 76.8092V75.1532L353.283 74.7852V76.8332C353.283 77.2865 353.147 77.6439 352.875 77.9052C352.625 78.1399 352.297 78.2572 351.891 78.2572H351.283Z" fill="black"/>
<path d="M114.435 5.352H114.963V6H114.355C113.907 6 113.561 5.86133 113.315 5.584C113.054 5.86133 112.705 6 112.267 6H109.411C108.979 6 108.641 5.856 108.395 5.568C108.182 5.31733 108.075 4.98933 108.075 4.584V3.616L108.763 3.248V4.52C108.763 5.07467 109.022 5.352 109.539 5.352H112.195C112.707 5.352 112.963 5.07467 112.963 4.52V1.208L113.659 0.84V4.552C113.659 5.08533 113.918 5.352 114.435 5.352ZM110.907 2.104C111.366 2.12533 111.595 2.352 111.595 2.784C111.595 2.97067 111.539 3.12 111.427 3.232C111.321 3.344 111.177 3.4 110.995 3.4H109.939L110.123 3.056H110.963C111.155 3.056 111.251 2.96 111.251 2.768C111.251 2.53333 111.102 2.416 110.803 2.416C110.649 2.416 110.507 2.45333 110.379 2.528V2.208L111.051 1.464H111.475L110.907 2.104ZM117.211 5.352H117.739V6H117.131C116.672 6 116.317 5.85333 116.067 5.56C115.8 5.85333 115.432 6 114.963 6H114.483V5.352H114.907C115.461 5.352 115.739 5.06133 115.739 4.48V1.208L116.435 0.84V4.488C116.435 4.79733 116.493 5.01867 116.611 5.152C116.733 5.28533 116.933 5.352 117.211 5.352ZM119.24 1.616C118.979 1.616 118.848 1.48267 118.848 1.216C118.848 0.954666 118.979 0.824 119.24 0.824C119.496 0.824 119.624 0.954666 119.624 1.216C119.624 1.48267 119.496 1.616 119.24 1.616ZM120.256 1.616C119.995 1.616 119.864 1.48267 119.864 1.216C119.864 0.954666 119.995 0.824 120.256 0.824C120.512 0.824 120.64 0.954666 120.64 1.216C120.64 1.48267 120.512 1.616 120.256 1.616ZM120.752 5.352H122.24V6H120.288C120.08 6 119.899 5.98133 119.744 5.944C119.595 5.98133 119.413 6 119.2 6H117.256V5.352H118.744C118.413 4.97333 118.248 4.55467 118.248 4.096C118.248 3.57333 118.395 3.15733 118.688 2.848C118.955 2.56533 119.307 2.424 119.744 2.424C120.245 2.424 120.632 2.60533 120.904 2.968C121.133 3.26667 121.248 3.64267 121.248 4.096C121.248 4.55467 121.083 4.97333 120.752 5.352ZM119.752 5.28C119.997 5.19467 120.197 5.04 120.352 4.816C120.507 4.58667 120.584 4.336 120.584 4.064C120.584 3.75467 120.507 3.512 120.352 3.336C120.203 3.15467 120 3.064 119.744 3.064C119.488 3.064 119.283 3.15467 119.128 3.336C118.979 3.51733 118.904 3.76 118.904 4.064C118.904 4.33067 118.984 4.57867 119.144 4.808C119.304 5.03733 119.507 5.19467 119.752 5.28ZM123.284 1.56C123.023 1.56 122.892 1.42667 122.892 1.16C122.892 0.898666 123.023 0.768 123.284 0.768C123.54 0.768 123.668 0.898666 123.668 1.16C123.668 1.42667 123.54 1.56 123.284 1.56ZM124.548 5.352H125.076V6H124.468C124.025 6 123.676 5.85867 123.42 5.576C123.164 5.85867 122.815 6 122.372 6H121.764V5.352H122.292C122.815 5.352 123.076 5.08533 123.076 4.552V2.896L123.764 2.528V4.552C123.764 5.08533 124.025 5.352 124.548 5.352ZM127.376 5.352H127.904V6H127.296C126.853 6 126.504 5.85867 126.248 5.576C125.992 5.85867 125.643 6 125.2 6H124.592V5.352H125.12C125.643 5.352 125.904 5.08533 125.904 4.552V2.896L126.592 2.528V4.552C126.592 5.08533 126.853 5.352 127.376 5.352ZM125.464 6.8C125.72 6.8 125.848 6.93333 125.848 7.2C125.848 7.46133 125.72 7.592 125.464 7.592C125.203 7.592 125.072 7.46133 125.072 7.2C125.072 6.93333 125.203 6.8 125.464 6.8ZM126.48 6.8C126.736 6.8 126.864 6.93333 126.864 7.2C126.864 7.46133 126.736 7.592 126.48 7.592C126.219 7.592 126.088 7.46133 126.088 7.2C126.088 6.93333 126.219 6.8 126.48 6.8ZM127.42 6V5.352H128.14C128.657 5.352 128.916 5.08533 128.916 4.552V3.432L129.604 3.064V4.552C129.604 5.08533 129.865 5.352 130.388 5.352H130.756C131.279 5.352 131.54 5.08533 131.54 4.552V3.16L132.228 2.8V4.552C132.228 5.08533 132.487 5.352 133.004 5.352H133.38C133.903 5.352 134.164 5.08533 134.164 4.552V2.896L134.852 2.528V4.576C134.852 5.02933 134.716 5.384 134.444 5.64C134.204 5.87467 133.884 5.99467 133.484 6H132.932C132.463 6 132.113 5.84267 131.884 5.528C131.655 5.83733 131.313 5.99467 130.86 6H130.308C129.849 6 129.5 5.84267 129.26 5.528C129.031 5.84267 128.681 6 128.212 6H127.42ZM142.777 6C142.724 6.46933 142.468 6.84533 142.009 7.128C141.583 7.38933 141.039 7.52 140.377 7.52C139.535 7.52 138.9 7.27467 138.473 6.784C138.159 6.42133 138.001 5.97333 138.001 5.44C138.001 4.992 138.113 4.608 138.337 4.288L139.001 4.144C138.761 4.52267 138.641 4.93067 138.641 5.368C138.641 5.84267 138.796 6.216 139.105 6.488C139.409 6.76 139.833 6.896 140.377 6.896C140.836 6.896 141.215 6.816 141.513 6.656C141.812 6.496 141.993 6.27733 142.057 6H141.257L141.593 5.352H142.801V6H142.777ZM139.841 8.936C139.58 8.936 139.449 8.80267 139.449 8.536C139.449 8.27467 139.58 8.144 139.841 8.144C140.097 8.144 140.225 8.27467 140.225 8.536C140.225 8.80267 140.097 8.936 139.841 8.936ZM140.857 8.936C140.596 8.936 140.465 8.80267 140.465 8.536C140.465 8.27467 140.596 8.144 140.857 8.144C141.113 8.144 141.241 8.27467 141.241 8.536C141.241 8.80267 141.113 8.936 140.857 8.936ZM143.277 1.616C143.016 1.616 142.885 1.48267 142.885 1.216C142.885 0.954666 143.016 0.824 143.277 0.824C143.533 0.824 143.661 0.954666 143.661 1.216C143.661 1.48267 143.533 1.616 143.277 1.616ZM144.301 1.616C144.04 1.616 143.909 1.48267 143.909 1.216C143.909 0.954666 144.04 0.824 144.301 0.824C144.557 0.824 144.685 0.954666 144.685 1.216C144.685 1.48267 144.557 1.616 144.301 1.616ZM145.165 5.352H145.693V6H145.085C144.642 6 144.293 5.85867 144.037 5.576C143.781 5.85867 143.432 6 142.989 6H142.381V5.352H142.909C143.432 5.352 143.693 5.08533 143.693 4.552V2.896L144.381 2.528V4.552C144.381 5.08533 144.642 5.352 145.165 5.352ZM145.209 6V5.352H145.633C146.188 5.352 146.465 5.06133 146.465 4.48V1.208L147.161 0.84V4.488C147.161 4.96267 147.02 5.33867 146.737 5.616C146.471 5.872 146.121 6 145.689 6H145.209ZM148.599 6V1.208L149.287 0.84V6H148.599ZM153.287 1.48C153.026 1.48 152.895 1.34667 152.895 1.08C152.895 0.818666 153.026 0.688 153.287 0.688C153.543 0.688 153.671 0.818666 153.671 1.08C153.671 1.34667 153.543 1.48 153.287 1.48ZM154.303 1.48C154.042 1.48 153.911 1.34667 153.911 1.08C153.911 0.818666 154.042 0.688 154.303 0.688C154.559 0.688 154.687 0.818666 154.687 1.08C154.687 1.34667 154.559 1.48 154.303 1.48ZM155.791 5.352H156.319V6H155.711C155.162 6 154.767 5.79733 154.527 5.392C154.271 5.63733 153.954 5.76 153.575 5.76C153.106 5.76 152.732 5.584 152.455 5.232C152.226 4.93333 152.111 4.568 152.111 4.136C152.111 3.61867 152.268 3.20267 152.583 2.888C152.85 2.616 153.175 2.48 153.559 2.48C153.852 2.48 154.106 2.55467 154.319 2.704V2.36L155.015 1.992V4.552C155.015 5.08533 155.274 5.352 155.791 5.352ZM154.319 3.448C154.122 3.22933 153.879 3.12 153.591 3.12C153.356 3.12 153.164 3.216 153.015 3.408C152.866 3.59467 152.791 3.84 152.791 4.144C152.791 4.45333 152.866 4.70133 153.015 4.888C153.164 5.07467 153.359 5.168 153.599 5.168C153.898 5.168 154.143 5.04533 154.335 4.8C154.324 4.704 154.319 4.62933 154.319 4.576V3.448ZM161.058 5.352H161.578V6H161.05C160.618 6 160.271 5.952 160.01 5.856C159.749 5.75467 159.506 5.57867 159.282 5.328C158.61 5.776 157.826 6 156.93 6H155.842V5.352H156.938C158.021 5.352 158.877 4.99467 159.506 4.28C159.063 3.464 158.525 3.056 157.89 3.056C157.458 3.056 157.013 3.28533 156.554 3.744V3.104C157.002 2.65067 157.477 2.424 157.978 2.424C158.389 2.424 158.786 2.57333 159.17 2.872C159.554 3.16533 159.893 3.58667 160.186 4.136V4.488C160.021 4.696 159.863 4.864 159.714 4.992C160.002 5.232 160.45 5.352 161.058 5.352ZM163.604 1.608C163.343 1.608 163.212 1.47467 163.212 1.208C163.212 0.946667 163.343 0.816 163.604 0.816C163.86 0.816 163.988 0.946667 163.988 1.208C163.988 1.47467 163.86 1.608 163.604 1.608ZM164.596 5.352H166.084V6H164.132C163.924 6 163.743 5.98133 163.588 5.944C163.439 5.98133 163.257 6 163.044 6H161.1V5.352H162.588C162.257 4.97333 162.092 4.55467 162.092 4.096C162.092 3.57333 162.239 3.15733 162.532 2.848C162.799 2.56533 163.151 2.424 163.588 2.424C164.089 2.424 164.476 2.60533 164.748 2.968C164.977 3.26667 165.092 3.64267 165.092 4.096C165.092 4.55467 164.927 4.97333 164.596 5.352ZM163.596 5.28C163.841 5.19467 164.041 5.04 164.196 4.816C164.351 4.58667 164.428 4.336 164.428 4.064C164.428 3.75467 164.351 3.512 164.196 3.336C164.047 3.15467 163.844 3.064 163.588 3.064C163.332 3.064 163.127 3.15467 162.972 3.336C162.823 3.51733 162.748 3.76 162.748 4.064C162.748 4.33067 162.828 4.57867 162.988 4.808C163.148 5.03733 163.351 5.19467 163.596 5.28ZM173.8 5.352H174.328V6H173.72C173.272 6 172.922 5.86133 172.672 5.584C172.421 5.86133 172.072 6 171.624 6H168.312C167.869 6 167.52 5.85867 167.264 5.576C167.008 5.85867 166.658 6 166.216 6H165.608V5.352H166.136C166.658 5.352 166.92 5.08533 166.92 4.552V3.432L167.608 3.064V4.552C167.608 5 167.781 5.25867 168.128 5.328C168.341 4.52267 168.693 3.85067 169.184 3.312C169.733 2.72 170.373 2.424 171.104 2.424C171.712 2.424 172.197 2.63467 172.56 3.056C172.864 3.41333 173.016 3.85333 173.016 4.376V4.568C173.016 5.09067 173.277 5.352 173.8 5.352ZM171.584 5.352C172.08 5.352 172.328 5.07467 172.328 4.52V4.376C172.328 3.96 172.2 3.62933 171.944 3.384C171.72 3.17067 171.442 3.064 171.112 3.064C170.546 3.064 170.037 3.32533 169.584 3.848C169.237 4.248 168.97 4.74933 168.784 5.352H171.584ZM173.85 6V5.352H174.274C174.829 5.352 175.106 5.06133 175.106 4.48V1.208L175.802 0.84V4.488C175.802 4.96267 175.661 5.33867 175.378 5.616C175.111 5.872 174.762 6 174.33 6H173.85ZM177.24 6V1.208L177.928 0.84V6H177.24ZM125.479 16C125.015 16 124.658 15.8507 124.407 15.552C124.194 15.296 124.087 14.9707 124.087 14.576V11.208L124.775 10.84V14.552C124.775 15.0853 125.037 15.352 125.559 15.352H126.087V16H125.479ZM131.052 15.352H131.58V16H130.972C130.524 16 130.177 15.8613 129.932 15.584C129.67 15.8613 129.316 16 128.868 16H128.004C127.822 16 127.652 15.9733 127.492 15.92C127.326 15.9733 127.156 16 126.98 16H125.604V15.352H126.636C126.433 15.08 126.332 14.7707 126.332 14.424C126.332 14.1093 126.409 13.8427 126.564 13.624C126.697 13.1333 126.95 12.7573 127.324 12.496C127.628 12.288 127.972 12.184 128.356 12.184C128.921 12.184 129.388 12.376 129.756 12.76C130.102 13.1227 130.276 13.5893 130.276 14.16V14.552C130.276 15.0853 130.534 15.352 131.052 15.352ZM128.844 15.352C129.105 15.352 129.292 15.288 129.404 15.16C129.521 15.0267 129.58 14.8133 129.58 14.52V14.16C129.58 13.7173 129.438 13.3733 129.156 13.128C128.926 12.9253 128.652 12.824 128.332 12.824C127.964 12.824 127.676 12.944 127.468 13.184H127.492C127.844 13.184 128.124 13.2987 128.332 13.528C128.545 13.752 128.652 14.0507 128.652 14.424C128.652 14.7813 128.548 15.0907 128.34 15.352H128.844ZM127.492 15.28C127.929 15.1307 128.148 14.832 128.148 14.384C128.148 14.16 128.086 13.9813 127.964 13.848C127.846 13.7093 127.689 13.64 127.492 13.64C127.294 13.64 127.134 13.7093 127.012 13.848C126.894 13.9813 126.836 14.16 126.836 14.384C126.836 14.832 127.054 15.1307 127.492 15.28ZM133.88 15.352H134.408V16H133.8C133.357 16 133.008 15.8587 132.752 15.576C132.496 15.8587 132.147 16 131.704 16H131.096V15.352H131.624C132.147 15.352 132.408 15.0853 132.408 14.552V12.896L133.096 12.528V14.552C133.096 15.0853 133.357 15.352 133.88 15.352ZM131.968 16.8C132.224 16.8 132.352 16.9333 132.352 17.2C132.352 17.4613 132.224 17.592 131.968 17.592C131.707 17.592 131.576 17.4613 131.576 17.2C131.576 16.9333 131.707 16.8 131.968 16.8ZM132.984 16.8C133.24 16.8 133.368 16.9333 133.368 17.2C133.368 17.4613 133.24 17.592 132.984 17.592C132.723 17.592 132.592 17.4613 132.592 17.2C132.592 16.9333 132.723 16.8 132.984 16.8ZM133.924 16V15.352H134.348C134.903 15.352 135.18 15.0613 135.18 14.48V11.208L135.876 10.84V14.488C135.876 14.9627 135.735 15.3387 135.452 15.616C135.185 15.872 134.836 16 134.404 16H133.924ZM137.314 16V11.208L138.002 10.84V16H137.314Z" fill="black"/>
<path d="M147.826 15.352H148.354V16H147.746C147.319 16 146.986 15.8747 146.746 15.624C146.527 15.8747 146.218 16 145.818 16H140.746L141.09 15.352H142.162L142.186 15.264V11.208L142.874 10.84V13.768C143.482 12.872 144.237 12.424 145.138 12.424C145.741 12.424 146.223 12.6347 146.586 13.056C146.895 13.4133 147.05 13.8533 147.05 14.376V14.568C147.05 15.0907 147.309 15.352 147.826 15.352ZM146.354 14.6V14.376C146.354 13.96 146.226 13.6293 145.97 13.384C145.751 13.1707 145.477 13.064 145.146 13.064C144.597 13.064 144.101 13.312 143.658 13.808C143.327 14.1813 143.066 14.648 142.874 15.208V15.352H145.762C145.991 15.352 146.146 15.2987 146.226 15.192C146.311 15.0853 146.354 14.888 146.354 14.6ZM147.877 16V15.352H148.405C148.928 15.352 149.189 15.0853 149.189 14.552V12.896L149.877 12.528V14.576C149.877 15.0293 149.741 15.3867 149.469 15.648C149.219 15.8827 148.891 16 148.485 16H147.877ZM149.165 17.592C148.904 17.592 148.773 17.4587 148.773 17.192C148.773 16.9307 148.904 16.8 149.165 16.8C149.421 16.8 149.549 16.9307 149.549 17.192C149.549 17.4587 149.421 17.592 149.165 17.592ZM151.314 16V11.208L152.002 10.84V16H151.314ZM155.922 15.352H156.45V16H155.842C155.57 16 155.336 15.9467 155.138 15.84C155.09 16.368 154.906 16.7893 154.586 17.104C154.293 17.392 153.925 17.536 153.482 17.536C153.162 17.536 152.85 17.456 152.546 17.296V16.696C152.818 16.8453 153.09 16.92 153.362 16.92C153.704 16.92 153.97 16.8053 154.162 16.576C154.354 16.3467 154.45 16.0293 154.45 15.624V12.896L155.138 12.528V12.536L155.146 12.528V14.712C155.194 15.1387 155.453 15.352 155.922 15.352ZM155.971 16V15.352H156.395C156.95 15.352 157.227 15.0613 157.227 14.48V11.208L157.923 10.84V14.488C157.923 14.9627 157.782 15.3387 157.499 15.616C157.232 15.872 156.883 16 156.451 16H155.971ZM159.361 16V11.208L160.049 10.84V16H159.361Z" fill="#CC3615"/>
<path d="M266.26 5.352H266.788V6H266.18C265.753 6 265.42 5.87467 265.18 5.624C264.961 5.87467 264.652 6 264.252 6H259.18L259.524 5.352H260.596L260.62 5.264V1.208L261.308 0.84V3.768C261.916 2.872 262.67 2.424 263.572 2.424C264.174 2.424 264.657 2.63467 265.02 3.056C265.329 3.41333 265.484 3.85333 265.484 4.376V4.568C265.484 5.09067 265.742 5.352 266.26 5.352ZM264.788 4.6V4.376C264.788 3.96 264.66 3.62933 264.404 3.384C264.185 3.17067 263.91 3.064 263.58 3.064C263.03 3.064 262.534 3.312 262.092 3.808C261.761 4.18133 261.5 4.648 261.308 5.208V5.352H264.196C264.425 5.352 264.58 5.29867 264.66 5.192C264.745 5.08533 264.788 4.888 264.788 4.6ZM269.327 1.56C269.065 1.56 268.935 1.42667 268.935 1.16C268.935 0.898666 269.065 0.768 269.327 0.768C269.583 0.768 269.711 0.898666 269.711 1.16C269.711 1.42667 269.583 1.56 269.327 1.56ZM270.263 5.352H272.375V6H270.199C269.911 6 269.625 5.944 269.343 5.832C269.06 5.944 268.772 6 268.479 6H266.311V5.352H268.423H268.535C268.151 5.03733 267.756 4.576 267.351 3.968V3.616C267.607 3.248 267.911 2.95733 268.263 2.744C268.62 2.53067 268.977 2.424 269.335 2.424C269.692 2.424 270.049 2.53333 270.407 2.752C270.764 2.96533 271.073 3.25867 271.335 3.632V3.968C270.929 4.576 270.532 5.03733 270.143 5.352H270.263ZM267.991 3.8C268.481 4.472 268.932 4.91467 269.343 5.128C269.753 4.90933 270.204 4.464 270.695 3.792C270.295 3.30667 269.841 3.06133 269.335 3.056C268.828 3.056 268.38 3.304 267.991 3.8ZM277.529 1.56C277.267 1.56 277.137 1.42667 277.137 1.16C277.137 0.898666 277.267 0.768 277.529 0.768C277.785 0.768 277.913 0.898666 277.913 1.16C277.913 1.42667 277.785 1.56 277.529 1.56ZM280.089 5.352H280.617V6H280.009C279.561 6 279.211 5.86133 278.961 5.584C278.71 5.86133 278.361 6 277.913 6H274.601C274.158 6 273.809 5.85867 273.553 5.576C273.297 5.85867 272.947 6 272.505 6H271.897V5.352H272.425C272.947 5.352 273.209 5.08533 273.209 4.552V3.432L273.897 3.064V4.552C273.897 5 274.07 5.25867 274.417 5.328C274.63 4.52267 274.982 3.85067 275.473 3.312C276.022 2.72 276.662 2.424 277.393 2.424C278.001 2.424 278.486 2.63467 278.849 3.056C279.153 3.41333 279.305 3.85333 279.305 4.376V4.568C279.305 5.09067 279.566 5.352 280.089 5.352ZM277.873 5.352C278.369 5.352 278.617 5.07467 278.617 4.52V4.376C278.617 3.96 278.489 3.62933 278.233 3.384C278.009 3.17067 277.731 3.064 277.401 3.064C276.835 3.064 276.326 3.32533 275.873 3.848C275.526 4.248 275.259 4.74933 275.073 5.352H277.873ZM282.923 5.352H283.451V6H282.843C282.4 6 282.051 5.85867 281.795 5.576C281.539 5.85867 281.19 6 280.747 6H280.139V5.352H280.667C281.19 5.352 281.451 5.08533 281.451 4.552V2.896L282.139 2.528V4.552C282.139 5.08533 282.4 5.352 282.923 5.352ZM281.011 6.8C281.267 6.8 281.395 6.93333 281.395 7.2C281.395 7.46133 281.267 7.592 281.011 7.592C280.75 7.592 280.619 7.46133 280.619 7.2C280.619 6.93333 280.75 6.8 281.011 6.8ZM282.027 6.8C282.283 6.8 282.411 6.93333 282.411 7.2C282.411 7.46133 282.283 7.592 282.027 7.592C281.766 7.592 281.635 7.46133 281.635 7.2C281.635 6.93333 281.766 6.8 282.027 6.8ZM282.967 6V5.352H283.687C284.204 5.352 284.463 5.08533 284.463 4.552V3.432L285.151 3.064V4.552C285.151 5.08533 285.412 5.352 285.935 5.352H286.303C286.826 5.352 287.087 5.08533 287.087 4.552V3.16L287.775 2.8V4.552C287.775 5.08533 288.034 5.352 288.551 5.352H288.927C289.45 5.352 289.711 5.08533 289.711 4.552V2.896L290.399 2.528V4.576C290.399 5.02933 290.263 5.384 289.991 5.64C289.751 5.87467 289.431 5.99467 289.031 6H288.479C288.01 6 287.66 5.84267 287.431 5.528C287.202 5.83733 286.86 5.99467 286.407 6H285.855C285.396 6 285.047 5.84267 284.807 5.528C284.578 5.84267 284.228 6 283.759 6H282.967ZM297.972 3.672C297.615 3.29867 297.242 3.112 296.852 3.112C296.644 3.112 296.479 3.17333 296.356 3.296C296.234 3.41867 296.172 3.584 296.172 3.792C296.172 4.02133 296.242 4.2 296.38 4.328C296.519 4.456 296.788 4.58933 297.188 4.728C297.588 4.872 297.86 5.008 298.004 5.136C298.218 5.31733 298.324 5.56533 298.324 5.88C298.324 6.38133 298.087 6.78667 297.612 7.096C297.18 7.37867 296.618 7.52 295.924 7.52C295.082 7.52 294.447 7.27467 294.02 6.784C293.706 6.42133 293.548 5.97333 293.548 5.44C293.548 4.992 293.66 4.608 293.884 4.288L294.548 4.144C294.308 4.52267 294.188 4.93067 294.188 5.368C294.188 5.82667 294.343 6.19467 294.652 6.472C294.956 6.73867 295.38 6.872 295.924 6.872C296.506 6.872 296.954 6.75733 297.268 6.528C297.514 6.34667 297.636 6.128 297.636 5.872C297.636 5.728 297.58 5.61067 297.468 5.52C297.362 5.42933 297.146 5.328 296.82 5.216C296.372 5.056 296.063 4.896 295.892 4.736C295.636 4.50133 295.508 4.18667 295.508 3.792C295.508 3.36 295.66 3.02133 295.964 2.776C296.199 2.58933 296.466 2.496 296.764 2.496C297.255 2.496 297.658 2.67467 297.972 3.032V3.672ZM295.388 8.936C295.127 8.936 294.996 8.80267 294.996 8.536C294.996 8.27467 295.127 8.144 295.388 8.144C295.644 8.144 295.772 8.27467 295.772 8.536C295.772 8.80267 295.644 8.936 295.388 8.936ZM296.404 8.936C296.143 8.936 296.012 8.80267 296.012 8.536C296.012 8.27467 296.143 8.144 296.404 8.144C296.66 8.144 296.788 8.27467 296.788 8.536C296.788 8.80267 296.66 8.936 296.404 8.936ZM300.617 1.56C300.355 1.56 300.225 1.42667 300.225 1.16C300.225 0.898666 300.355 0.768 300.617 0.768C300.873 0.768 301.001 0.898666 301.001 1.16C301.001 1.42667 300.873 1.56 300.617 1.56ZM298.881 6L299.217 5.352H300.641C300.854 5.352 301.003 5.29867 301.089 5.192C301.179 5.08533 301.225 4.90133 301.225 4.64C301.225 3.93067 300.897 3.39733 300.241 3.04L300.593 2.448C301.43 2.93867 301.867 3.616 301.905 4.48C301.915 4.78933 301.985 5.01333 302.113 5.152C302.246 5.28533 302.457 5.352 302.745 5.352H303.217V6H302.689C302.246 6 301.899 5.85867 301.649 5.576C301.473 5.85867 301.177 6 300.761 6H298.881ZM302.74 6V5.352H303.164C303.719 5.352 303.996 5.06133 303.996 4.48V1.208L304.692 0.84V4.488C304.692 4.96267 304.551 5.33867 304.268 5.616C304.002 5.872 303.652 6 303.22 6H302.74ZM306.13 6V1.208L306.818 0.84V6H306.13ZM267.058 18.52V16.776C267.058 16.3227 267.189 15.9707 267.45 15.72C267.685 15.4907 268.01 15.368 268.426 15.352C268.186 15.08 268.066 14.7013 268.066 14.216C268.066 13.6347 268.218 13.1813 268.522 12.856C268.794 12.568 269.152 12.424 269.594 12.424C270.048 12.424 270.397 12.5653 270.642 12.848C270.861 13.0987 270.97 13.4267 270.97 13.832V14.696C270.965 15.096 270.84 15.4107 270.594 15.64C270.349 15.8693 270.01 15.9893 269.578 16H268.53C268.008 16 267.746 16.2667 267.746 16.8V18.152L267.058 18.52ZM270.282 13.864C270.282 13.3307 270.053 13.064 269.594 13.064C269.328 13.064 269.12 13.1653 268.97 13.368C268.826 13.5653 268.754 13.8427 268.754 14.2C268.754 14.5627 268.824 14.8453 268.962 15.048C269.101 15.2507 269.296 15.352 269.546 15.352C270.037 15.352 270.282 15.104 270.282 14.608V13.864ZM271.689 16L272.025 15.352H273.449C273.663 15.352 273.812 15.2987 273.897 15.192C273.988 15.0853 274.033 14.9013 274.033 14.64C274.033 13.9307 273.705 13.3973 273.049 13.04L273.401 12.448C274.239 12.9387 274.676 13.616 274.713 14.48C274.724 14.7893 274.793 15.0133 274.921 15.152C275.055 15.2853 275.265 15.352 275.553 15.352H276.025V16H275.497C275.055 16 274.708 15.8587 274.457 15.576C274.281 15.8587 273.985 16 273.569 16H271.689ZM277.973 11.56C277.712 11.56 277.581 11.4267 277.581 11.16C277.581 10.8987 277.712 10.768 277.973 10.768C278.229 10.768 278.357 10.8987 278.357 11.16C278.357 11.4267 278.229 11.56 277.973 11.56ZM280.765 15.352H281.285V16H280.757C280.325 16 279.978 15.952 279.717 15.856C279.456 15.7547 279.213 15.5787 278.989 15.328C278.317 15.776 277.533 16 276.637 16H275.549V15.352H276.645C277.728 15.352 278.584 14.9947 279.213 14.28C278.77 13.464 278.232 13.056 277.597 13.056C277.165 13.056 276.72 13.2853 276.261 13.744V13.104C276.709 12.6507 277.184 12.424 277.685 12.424C278.096 12.424 278.493 12.5733 278.877 12.872C279.261 13.1653 279.6 13.5867 279.893 14.136V14.488C279.728 14.696 279.57 14.864 279.421 14.992C279.709 15.232 280.157 15.352 280.765 15.352ZM281.703 11.616C281.442 11.616 281.311 11.4827 281.311 11.216C281.311 10.9547 281.442 10.824 281.703 10.824C281.959 10.824 282.087 10.9547 282.087 11.216C282.087 11.4827 281.959 11.616 281.703 11.616ZM282.727 11.616C282.466 11.616 282.335 11.4827 282.335 11.216C282.335 10.9547 282.466 10.824 282.727 10.824C282.983 10.824 283.111 10.9547 283.111 11.216C283.111 11.4827 282.983 11.616 282.727 11.616ZM283.591 15.352H284.119V16H283.511C283.068 16 282.719 15.8587 282.463 15.576C282.207 15.8587 281.858 16 281.415 16H280.807V15.352H281.335C281.858 15.352 282.119 15.0853 282.119 14.552V12.896L282.807 12.528V14.552C282.807 15.0853 283.068 15.352 283.591 15.352ZM283.635 16V15.352H284.355C284.872 15.352 285.131 15.0853 285.131 14.552V13.432L285.819 13.064V14.552C285.819 15.0853 286.08 15.352 286.603 15.352H286.971C287.494 15.352 287.755 15.0853 287.755 14.552V13.16L288.443 12.8V14.552C288.443 15.0853 288.702 15.352 289.219 15.352H289.595C290.118 15.352 290.379 15.0853 290.379 14.552V12.896L291.067 12.528V14.48C291.067 15.0613 291.344 15.352 291.899 15.352H292.563V16H291.843C291.363 16 290.998 15.8373 290.747 15.512C290.523 15.832 290.174 15.9947 289.699 16H289.147C288.678 16 288.328 15.8427 288.099 15.528C287.87 15.8373 287.528 15.9947 287.075 16H286.523C286.064 16 285.715 15.8427 285.475 15.528C285.246 15.8427 284.896 16 284.427 16H283.635ZM297.232 15.352H297.768V16H297.16C296.718 16 296.368 15.8587 296.112 15.576C295.84 15.9653 295.443 16.16 294.92 16.16C294.398 16.16 294.003 15.968 293.736 15.584C293.486 15.8613 293.136 16 292.688 16H292.08V15.352H292.608C293.131 15.352 293.392 15.0853 293.392 14.552V14.288C293.392 13.6693 293.544 13.1947 293.848 12.864C294.115 12.5707 294.472 12.424 294.92 12.424C295.432 12.424 295.827 12.6133 296.104 12.992C296.339 13.3173 296.456 13.7493 296.456 14.288V14.552C296.456 15.0853 296.715 15.352 297.232 15.352ZM294.92 15.512C295.182 15.512 295.387 15.4027 295.536 15.184C295.691 14.9653 295.768 14.664 295.768 14.28C295.768 13.4693 295.486 13.064 294.92 13.064C294.36 13.064 294.08 13.4693 294.08 14.28C294.08 15.1013 294.36 15.512 294.92 15.512ZM297.291 16V15.352H297.715C298.27 15.352 298.547 15.0613 298.547 14.48V11.208L299.243 10.84V14.488C299.243 14.9627 299.102 15.3387 298.819 15.616C298.553 15.872 298.203 16 297.771 16H297.291ZM300.681 16V11.208L301.369 10.84V16H300.681ZM307.873 15.352H308.401V16H307.793C307.244 16 306.849 15.7973 306.609 15.392C306.353 15.6373 306.036 15.76 305.657 15.76C305.188 15.76 304.814 15.584 304.537 15.232C304.308 14.9333 304.193 14.568 304.193 14.136C304.193 13.6187 304.35 13.2027 304.665 12.888C304.932 12.616 305.257 12.48 305.641 12.48C305.934 12.48 306.188 12.5547 306.401 12.704V12.36L307.097 11.992V14.552C307.097 15.0853 307.356 15.352 307.873 15.352ZM306.401 13.448C306.204 13.2293 305.961 13.12 305.673 13.12C305.438 13.12 305.246 13.216 305.097 13.408C304.948 13.5947 304.873 13.84 304.873 14.144C304.873 14.4533 304.948 14.7013 305.097 14.888C305.246 15.0747 305.441 15.168 305.681 15.168C305.98 15.168 306.225 15.0453 306.417 14.8C306.406 14.704 306.401 14.6293 306.401 14.576V13.448ZM310.708 15.352H311.236V16H310.628C310.185 16 309.836 15.8587 309.58 15.576C309.324 15.8587 308.975 16 308.532 16H307.924V15.352H308.452C308.975 15.352 309.236 15.0853 309.236 14.552V12.896L309.924 12.528V14.552C309.924 15.0853 310.185 15.352 310.708 15.352ZM308.796 16.8C309.052 16.8 309.18 16.9333 309.18 17.2C309.18 17.4613 309.052 17.592 308.796 17.592C308.535 17.592 308.404 17.4613 308.404 17.2C308.404 16.9333 308.535 16.8 308.796 16.8ZM309.812 16.8C310.068 16.8 310.196 16.9333 310.196 17.2C310.196 17.4613 310.068 17.592 309.812 17.592C309.551 17.592 309.42 17.4613 309.42 17.2C309.42 16.9333 309.551 16.8 309.812 16.8ZM313.48 15.352H314.008V16H313.4C312.942 16 312.587 15.8533 312.336 15.56C312.07 15.8533 311.702 16 311.232 16H310.752V15.352H311.176C311.731 15.352 312.008 15.0613 312.008 14.48V11.208L312.704 10.84V14.488C312.704 14.7973 312.763 15.0187 312.88 15.152C313.003 15.2853 313.203 15.352 313.48 15.352ZM317.838 15.352V16H313.526V15.352H314.91C314.648 15.016 314.518 14.6027 314.518 14.112C314.518 13.568 314.704 13.136 315.078 12.816C315.382 12.56 315.734 12.4293 316.134 12.424C316.699 12.424 317.139 12.6507 317.454 13.104V13.752C317.112 13.2933 316.699 13.064 316.214 13.064C315.91 13.064 315.664 13.1627 315.478 13.36C315.296 13.552 315.206 13.8107 315.206 14.136C315.206 14.504 315.315 14.8 315.534 15.024C315.758 15.2427 316.054 15.352 316.422 15.352H317.838Z" fill="black"/>
<path d="M320.306 5.352H320.834V6H320.226C319.778 6 319.429 5.86133 319.178 5.584C318.928 5.86133 318.578 6 318.13 6H314.818C314.541 6 314.301 5.944 314.098 5.832C314.034 6.376 313.797 6.8 313.386 7.104C313.018 7.38133 312.562 7.52 312.018 7.52C311.325 7.52 310.786 7.27467 310.402 6.784C310.109 6.40533 309.962 5.95733 309.962 5.44C309.962 4.992 310.074 4.608 310.298 4.288L310.962 4.144C310.722 4.52267 310.602 4.93067 310.602 5.368C310.602 5.816 310.741 6.184 311.018 6.472C311.28 6.73867 311.613 6.872 312.018 6.872C312.488 6.872 312.85 6.736 313.106 6.464C313.32 6.23467 313.426 5.936 313.426 5.568V3.432L314.114 3.064V4.552C314.114 5 314.288 5.25867 314.634 5.328C314.853 4.51733 315.205 3.84533 315.69 3.312C316.24 2.72 316.88 2.424 317.61 2.424C318.218 2.424 318.704 2.63467 319.066 3.056C319.37 3.41333 319.522 3.85333 319.522 4.376V4.568C319.522 5.09067 319.784 5.352 320.306 5.352ZM318.09 5.352C318.586 5.352 318.834 5.07467 318.834 4.52V4.376C318.834 3.96 318.706 3.62933 318.45 3.384C318.226 3.17067 317.949 3.064 317.618 3.064C317.048 3.064 316.536 3.32267 316.082 3.84C315.736 4.24533 315.472 4.74933 315.29 5.352H318.09ZM321.878 1.56C321.616 1.56 321.486 1.42667 321.486 1.16C321.486 0.898666 321.616 0.768 321.878 0.768C322.134 0.768 322.262 0.898666 322.262 1.16C322.262 1.42667 322.134 1.56 321.878 1.56ZM323.142 5.352H323.67V6H323.062C322.619 6 322.27 5.85867 322.014 5.576C321.758 5.85867 321.408 6 320.966 6H320.358V5.352H320.886C321.408 5.352 321.67 5.08533 321.67 4.552V2.896L322.358 2.528V4.552C322.358 5.08533 322.619 5.352 323.142 5.352ZM323.186 6V5.352H323.61C324.164 5.352 324.442 5.06133 324.442 4.48V1.208L325.138 0.84V4.488C325.138 4.96267 324.996 5.33867 324.714 5.616C324.447 5.872 324.098 6 323.666 6H323.186ZM326.575 6V1.208L327.263 0.84V6H326.575Z" fill="#1371FE"/>
</svg>
